<svg xmlns="http://www.w3.org/2000/svg" width="256" height="256" viewBox="0 0 256 256">
  <defs>
    <linearGradient id="bg" x1="0" y1="0" x2="1" y2="1">
      <stop offset="0" stop-color="#102b55"/>
      <stop offset="1" stop-color="#07152d"/>
    </linearGradient>
    <radialGradient id="scan" cx="50%" cy="46%" r="54%">
      <stop offset="0" stop-color="#dffcff" stop-opacity=".95"/>
      <stop offset=".62" stop-color="#8ed9e8" stop-opacity=".8"/>
      <stop offset="1" stop-color="#3c8daa" stop-opacity=".75"/>
    </radialGradient>
    <filter id="shadow" x="-20%" y="-20%" width="140%" height="140%">
      <feDropShadow dx="0" dy="5" stdDeviation="6" flood-color="#020817" flood-opacity=".55"/>
    </filter>
  </defs>
  <rect x="8" y="8" width="240" height="240" rx="52" fill="url(#bg)"/>
  <circle cx="122" cy="132" r="78" fill="#071a32" stroke="#4bc7df" stroke-width="6" filter="url(#shadow)"/>
  <circle cx="122" cy="132" r="62" fill="url(#scan)" stroke="#c9f8ff" stroke-width="3"/>
  <ellipse cx="122" cy="132" rx="42" ry="54" fill="#174f76" opacity=".43"/>
  <path d="M60 132h124M122 70v124" stroke="#39d8e8" stroke-width="4" stroke-linecap="round" opacity=".9"/>
  <circle cx="122" cy="132" r="8" fill="#fff" stroke="#1aaec6" stroke-width="4"/>
  <g transform="translate(166 32)">
    <rect width="58" height="58" rx="16" fill="#18b9a9" stroke="#d9fffb" stroke-width="3"/>
    <path d="M16 20h18v18H16zM27 31h18v18H27z" fill="none" stroke="#fff" stroke-width="5"/>
    <path d="M38 12v12M32 18h12" stroke="#fff" stroke-width="4" stroke-linecap="round"/>
  </g>
  <path d="M42 214h160" stroke="#63dcea" stroke-width="4" stroke-linecap="round" opacity=".7"/>
</svg>
